<svg xmlns="http://www.w3.org/2000/svg" xmlns:xlink="http://www.w3.org/1999/xlink" width="500" zoomAndPan="magnify" viewBox="0 0 375 374.999991" height="500" preserveAspectRatio="xMidYMid meet" version="1.2"><defs><clipPath id="96a4844322"><path d="M 52.148438 86.832031 L 322.898438 86.832031 L 322.898438 287.832031 L 52.148438 287.832031 Z M 52.148438 86.832031 "/></clipPath></defs><g id="b8c7dcae94"><g clip-rule="nonzero" clip-path="url(#96a4844322)"><path style=" stroke:none;fill-rule:evenodd;fill:#691dff;fill-opacity:1;" d="M 109.914062 137.3125 L 224.683594 137.3125 L 198.195312 163.71875 L 167.519531 194.761719 L 203.308594 229.960938 L 260.914062 287.851562 L 322.25 287.851562 L 275.785156 241.070312 L 233.96875 199.378906 L 275.785156 157.6875 L 275.785156 86.832031 L 59.273438 86.832031 Z M 153.125 179.9375 L 173.105469 160.007812 L 87.15625 160.007812 L 52.304688 194.761719 L 95.058594 237.371094 L 109.914062 251.734375 L 145.238281 287.851562 L 214.921875 287.851562 L 180.074219 253.113281 L 144.304688 217.453125 L 129.910156 203.09375 Z M 153.125 179.9375 "/></g></g></svg>